<?xml version="1.0" encoding="UTF-8" standalone="no"?>
<!-- Created with Inkscape (http://www.inkscape.org/) -->

<svg
   xmlns:dc="http://purl.org/dc/elements/1.1/"
   xmlns:cc="http://creativecommons.org/ns#"
   xmlns:rdf="http://www.w3.org/1999/02/22-rdf-syntax-ns#"
   xmlns:svg="http://www.w3.org/2000/svg"
   xmlns="http://www.w3.org/2000/svg"
   xmlns:sodipodi="http://sodipodi.sourceforge.net/DTD/sodipodi-0.dtd"
   xmlns:inkscape="http://www.inkscape.org/namespaces/inkscape"
   width="210mm"
   height="297mm"
   viewBox="0 0 744.09448819 1052.3622047"
   id="svg15086"
   version="1.1"
   inkscape:version="0.91 r13725"
   sodipodi:docname="Lua.svg">
  <defs
     id="defs15088" />
  <sodipodi:namedview
     id="base"
     pagecolor="#ffffff"
     bordercolor="#666666"
     borderopacity="1.0"
     inkscape:pageopacity="0.0"
     inkscape:pageshadow="2"
     inkscape:zoom="2.8"
     inkscape:cx="-196.42265"
     inkscape:cy="967.79409"
     inkscape:document-units="px"
     inkscape:current-layer="layer1"
     showgrid="false"
     inkscape:window-width="1920"
     inkscape:window-height="1017"
     inkscape:window-x="-8"
     inkscape:window-y="-8"
     inkscape:window-maximized="1" />
  <metadata
     id="metadata15091">
    <rdf:RDF>
      <cc:Work
         rdf:about="">
        <dc:format>image/svg+xml</dc:format>
        <dc:type
           rdf:resource="http://purl.org/dc/dcmitype/StillImage" />
        <dc:title />
      </cc:Work>
    </rdf:RDF>
  </metadata>
  <g
     inkscape:label="Camada 1"
     inkscape:groupmode="layer"
     id="layer1">
    <path
       style="fill:#000000;stroke:#000000"
       d="m -15.500391,0.3649743 a 26.640061,26.640061 0 0 0 26.639949,26.6402007 26.640061,26.640061 0 0 0 3.36005,-0.239 26.640061,26.640061 0 0 1 -15.526349,-7.6318 19.880643,23.856771 0 0 1 -4.5587,-6.167501 26.640061,26.640061 0 0 1 -3.1953504,-12.6017497 26.640061,26.640061 0 0 1 23.2803994,-26.3942493 26.640061,26.640061 0 0 0 -3.36005,-0.246 26.640061,26.640061 0 0 0 -26.639949,26.6399493 z"
       id="path8228-7-8"
       inkscape:connector-curvature="0" />
  </g>
</svg>
