<?xml version="1.0" encoding="UTF-8" standalone="no"?>
<svg
   xmlns:dc="http://purl.org/dc/elements/1.1/"
   xmlns:cc="http://creativecommons.org/ns#"
   xmlns:rdf="http://www.w3.org/1999/02/22-rdf-syntax-ns#"
   xmlns:svg="http://www.w3.org/2000/svg"
   xmlns="http://www.w3.org/2000/svg"
   xmlns:sodipodi="http://sodipodi.sourceforge.net/DTD/sodipodi-0.dtd"
   xmlns:inkscape="http://www.inkscape.org/namespaces/inkscape"
   style="fill-opacity:1; color-rendering:auto; color-interpolation:auto; stroke:black; text-rendering:auto; stroke-linecap:square; stroke-miterlimit:10; stroke-opacity:1; shape-rendering:auto; fill:black; stroke-dasharray:none; font-weight:normal; stroke-width:1; font-family:'Dialog'; font-style:normal; stroke-linejoin:miter; font-size:12px; stroke-dashoffset:0; image-rendering:auto;"
   width="800"
   height="800"
   id="svg2"
   version="1.1"
   inkscape:version="0.91 r13725"
   sodipodi:docname="Marte.svg">
  <metadata
     id="metadata3465">
    <rdf:RDF>
      <cc:Work
         rdf:about="">
        <dc:format>image/svg+xml</dc:format>
        <dc:type
           rdf:resource="http://purl.org/dc/dcmitype/StillImage" />
        <dc:title />
      </cc:Work>
    </rdf:RDF>
  </metadata>
  <sodipodi:namedview
     pagecolor="#ffffff"
     bordercolor="#666666"
     borderopacity="1"
     objecttolerance="10"
     gridtolerance="10"
     guidetolerance="10"
     inkscape:pageopacity="0"
     inkscape:pageshadow="2"
     inkscape:window-width="1315"
     inkscape:window-height="692"
     id="namedview3463"
     showgrid="false"
     inkscape:zoom="1.18"
     inkscape:cx="-226.19546"
     inkscape:cy="728.69859"
     inkscape:window-x="0"
     inkscape:window-y="0"
     inkscape:window-maximized="0"
     inkscape:current-layer="svg2" />
  <!-- Generated by Processing with the P8gGraphicsSVG library -->
  <defs
     id="genericDefs" />
  <path
     style="fill:#000000;stroke-width:0.07690959;stroke:#ffffff"
     d="M 0.00354274,14.50494 A 14.722694,14.722694 0 0 0 14.871963,-0.07059323 14.722694,14.722694 0 0 0 3.8792607,-14.44552 l 5.02e-4,-0.0505 a 2.9665131,14.832566 0.56962526 0 1 -0.110149,0.01841 2.9665131,14.832566 0.56962526 0 1 -2.82141796,-13.994742 14.832566,2.9665131 0.56962526 0 1 13.70130326,2.653935 l 0.220499,0.0022 0.06772,-6.811724 -0.107395,-0.0011 a 14.832566,2.9665131 0.56962526 0 1 0.01841,0.110138 14.832566,2.9665131 0.56962526 0 1 -13.89078726,2.821562 2.9665131,14.832566 0.56962526 0 1 2.81234196,-14.35905 l -6.408414,-0.06371 -0.0014,0.138493 a 2.9665131,14.832566 0.56962526 0 1 2.38313504,14.276558 14.832566,2.9665131 0.56962526 0 1 -14.47365374,-2.814541 l -0.06371,6.408423 0.138493,0.0014 a 14.832566,2.9665131 0.56962526 0 1 14.38066774,-2.3836 2.9665131,14.832566 0.56962526 0 1 -2.65628104,13.816495 l -7.52e-4,0.0757 A 14.722694,14.722694 0 0 0 -14.57204,-0.36339423 14.722694,14.722694 0 0 0 0.00349474,14.504876 Z m 0.104127,-3.844635 A 13.184502,10.987086 0.56962526 0 1 -12.966888,-0.45733723 13.184502,10.987086 0.56962526 0 1 0.32613074,-11.312829 13.184502,10.987086 0.56962526 0 1 13.400839,-0.19518523 13.184502,10.987086 0.56962526 0 1 0.10766974,10.660305 Z m -0.203763,-8.2427332 A 2.4171588,2.4171588 0 0 0 2.3450567,0.02463277 2.4171588,2.4171588 0 0 0 -0.04803326,-2.4163692 2.4171588,2.4171588 0 0 0 -2.4890443,-0.02342923 2.4171588,2.4171588 0 0 0 -0.09609326,2.4175718 Z"
     id="path8228"
     inkscape:connector-curvature="0"
     inkscape:transform-center-y="-14.38165" />
</svg>
