<?xml version="1.0" encoding="UTF-8" standalone="no"?>
<svg
   xmlns:dc="http://purl.org/dc/elements/1.1/"
   xmlns:cc="http://creativecommons.org/ns#"
   xmlns:rdf="http://www.w3.org/1999/02/22-rdf-syntax-ns#"
   xmlns:svg="http://www.w3.org/2000/svg"
   xmlns="http://www.w3.org/2000/svg"
   xmlns:sodipodi="http://sodipodi.sourceforge.net/DTD/sodipodi-0.dtd"
   xmlns:inkscape="http://www.inkscape.org/namespaces/inkscape"
   style="fill-opacity:1; color-rendering:auto; color-interpolation:auto; stroke:black; text-rendering:auto; stroke-linecap:square; stroke-miterlimit:10; stroke-opacity:1; shape-rendering:auto; fill:black; stroke-dasharray:none; font-weight:normal; stroke-width:1; font-family:'Dialog'; font-style:normal; stroke-linejoin:miter; font-size:12px; stroke-dashoffset:0; image-rendering:auto;"
   width="800"
   height="800"
   id="svg2"
   version="1.1"
   inkscape:version="0.91 r13725"
   sodipodi:docname="Neptune.svg">
  <metadata
     id="metadata1549">
    <rdf:RDF>
      <cc:Work
         rdf:about="">
        <dc:format>image/svg+xml</dc:format>
        <dc:type
           rdf:resource="http://purl.org/dc/dcmitype/StillImage" />
      </cc:Work>
    </rdf:RDF>
  </metadata>
  <sodipodi:namedview
     pagecolor="#ffffff"
     bordercolor="#666666"
     borderopacity="1"
     objecttolerance="10"
     gridtolerance="10"
     guidetolerance="10"
     inkscape:pageopacity="0"
     inkscape:pageshadow="2"
     inkscape:window-width="1498"
     inkscape:window-height="820"
     id="namedview1547"
     showgrid="true"
     showguides="true"
     inkscape:guide-bbox="true"
     inkscape:zoom="1.668772"
     inkscape:cx="-108.01634"
     inkscape:cy="688.6669"
     inkscape:window-x="0"
     inkscape:window-y="0"
     inkscape:window-maximized="0"
     inkscape:current-layer="svg2">
    <sodipodi:guide
       position="-423.72881,674.57627"
       orientation="0,1"
       id="guide4891" />
    <inkscape:grid
       type="xygrid"
       id="grid4893" />
  </sodipodi:namedview>
  <!-- Generated by Processing with the P8gGraphicsSVG library -->
  <defs
     id="genericDefs" />
  <path
     style="fill:#000000;stroke-width:0.15515307;stroke:#ffffff"
     d="m -7.788547,-45.913335 0,0.33364 a 5.9844757,46.102604 0 0 1 0.22182,-0.0606 5.9844757,46.102604 0 0 1 5.3718801,25.85208 29.700729,29.700729 0 0 1 -26.9836101,-25.82965 29.700729,29.700729 0 0 0 -0.27424,3.7461 29.700729,29.700729 0 0 0 27.6360301,29.62726 5.9844757,46.102604 0 0 1 0.23424,12.706789 5.9844757,46.102604 0 0 1 -0.30303,14.333781 29.922378,5.9844757 0 0 1 -27.4011801,-5.076101 l -0.44486,0 0,13.742251 0.21668,0 a 29.922378,5.9844757 0 0 1 -0.0394,-0.22182 29.922378,5.9844757 0 0 1 27.5508801,-5.96309 5.9844757,46.102604 0 0 1 -4.9715701,29.01454 l 12.9286201,0 0,-0.43032 a 5.9844757,46.102604 0 0 1 -4.66853,-28.59604 29.922378,5.9844757 0 0 1 28.8281699,5.38309 l 0,-12.928611 -0.2794,0 A 29.922378,5.9844757 0 0 1 1.1618531,14.812735 5.9844757,46.102604 0 0 1 0.85578314,0.325624 5.9844757,46.102604 0 0 1 1.0885131,-12.213295 a 29.700729,29.700729 0 0 0 28.8602899,-29.65847 29.700729,29.700729 0 0 0 -0.26636,-3.7461 29.700729,29.700729 0 0 1 -8.50858,17.31017 26.597668,22.164725 0 0 1 -6.87613,5.08247 29.700729,29.700729 0 0 1 -12.8355799,3.50368 5.9844757,46.102604 0 0 1 4.49156,-25.50632 l 0,-0.68546 -13.7422601,0 z"
     id="rect9753-5"
     inkscape:connector-curvature="0" />
</svg>
