<?xml version="1.0" encoding="UTF-8" standalone="no"?>
<!-- Created with Inkscape (http://www.inkscape.org/) -->

<svg
   xmlns:dc="http://purl.org/dc/elements/1.1/"
   xmlns:cc="http://creativecommons.org/ns#"
   xmlns:rdf="http://www.w3.org/1999/02/22-rdf-syntax-ns#"
   xmlns:svg="http://www.w3.org/2000/svg"
   xmlns="http://www.w3.org/2000/svg"
   xmlns:sodipodi="http://sodipodi.sourceforge.net/DTD/sodipodi-0.dtd"
   xmlns:inkscape="http://www.inkscape.org/namespaces/inkscape"
   width="210mm"
   height="297mm"
   viewBox="0 0 744.09448819 1052.3622047"
   id="svg15132"
   version="1.1"
   inkscape:version="0.91 r13725"
   sodipodi:docname="Saturn.svg">
  <defs
     id="defs15134" />
  <sodipodi:namedview
     id="base"
     pagecolor="#ffffff"
     bordercolor="#666666"
     borderopacity="1.0"
     inkscape:pageopacity="0.0"
     inkscape:pageshadow="2"
     inkscape:zoom="0.7"
     inkscape:cx="-777.37828"
     inkscape:cy="750.78729"
     inkscape:document-units="px"
     inkscape:current-layer="layer1"
     showgrid="false"
     inkscape:window-width="1920"
     inkscape:window-height="1017"
     inkscape:window-x="-8"
     inkscape:window-y="-8"
     inkscape:window-maximized="1"
     showguides="true"
     inkscape:guide-bbox="true">
    <sodipodi:guide
       position="-668.57143,382.85715"
       orientation="1,0"
       id="guide3361" />
  </sodipodi:namedview>
  <metadata
     id="metadata15137">
    <rdf:RDF>
      <cc:Work
         rdf:about="">
        <dc:format>image/svg+xml</dc:format>
        <dc:type
           rdf:resource="http://purl.org/dc/dcmitype/StillImage" />
        <dc:title />
      </cc:Work>
    </rdf:RDF>
  </metadata>
  <g
     inkscape:label="Camada 1"
     inkscape:groupmode="layer"
     id="layer1">
    <path
       style="fill:#000000;stroke:#000000"
       d="m -8.861738,-55.87582 0,0.21155 a 5.8430898,29.215449 0 0 1 0.21658,-0.0385 5.8430898,29.215449 0 0 1 5.8310895,27.50859 29.215449,5.8430898 0 0 1 -27.0378595,-4.95885 l -0.43434,0 0,13.4176 0.21155,0 a 29.215449,5.8430898 0 0 1 -0.0385,-0.21658 29.215449,5.8430898 0 0 1 27.3038395,-5.82931 5.8430898,29.215449 0 0 1 -5.2579695,28.3364398 l 10.7283895,0 A 28.999037,28.999037 0 0 1 13.958402,9.57533 a 21.641074,25.969287 0 0 1 4.9624,6.71368 28.999037,28.999037 0 0 1 3.47829,13.7176 28.999037,28.999037 0 0 1 -25.3419105,28.73144 28.999037,28.999037 0 0 0 3.6576,0.26777 A 28.999037,28.999037 0 0 0 29.713692,30.00691 28.999037,28.999037 0 0 0 3.6463015,1.1869998 5.8430898,29.215449 0 0 1 -0.4175285,-25.7899 29.215449,5.8430898 0 0 1 28.144672,-20.52986 l 0,-12.62317 -0.2728,0 a 29.215449,5.8430898 0 0 1 -28.2772705,4.97631 5.8430898,29.215449 0 0 1 4.96122,-27.26479 l 0,-0.43435 -13.4175995,0 z"
       id="path8228-7"
       inkscape:connector-curvature="0" />
  </g>
</svg>
