<?xml version="1.0" encoding="UTF-8" standalone="no"?>
<!-- Created with Inkscape (http://www.inkscape.org/) -->

<svg
   xmlns:dc="http://purl.org/dc/elements/1.1/"
   xmlns:cc="http://creativecommons.org/ns#"
   xmlns:rdf="http://www.w3.org/1999/02/22-rdf-syntax-ns#"
   xmlns:svg="http://www.w3.org/2000/svg"
   xmlns="http://www.w3.org/2000/svg"
   xmlns:sodipodi="http://sodipodi.sourceforge.net/DTD/sodipodi-0.dtd"
   xmlns:inkscape="http://www.inkscape.org/namespaces/inkscape"
   width="210mm"
   height="297mm"
   viewBox="0 0 744.09448819 1052.3622047"
   id="svg15042"
   version="1.1"
   inkscape:version="0.91 r13725"
   sodipodi:docname="Sol.svg">
  <defs
     id="defs15044" />
  <sodipodi:namedview
     id="base"
     pagecolor="#ffffff"
     bordercolor="#666666"
     borderopacity="1.0"
     inkscape:pageopacity="0.0"
     inkscape:pageshadow="2"
     inkscape:zoom="0.98994949"
     inkscape:cx="-375.02934"
     inkscape:cy="795.15775"
     inkscape:document-units="px"
     inkscape:current-layer="layer1"
     showgrid="false"
     inkscape:window-width="1920"
     inkscape:window-height="1017"
     inkscape:window-x="-8"
     inkscape:window-y="-8"
     inkscape:window-maximized="1" />
  <metadata
     id="metadata15047">
    <rdf:RDF>
      <cc:Work
         rdf:about="">
        <dc:format>image/svg+xml</dc:format>
        <dc:type
           rdf:resource="http://purl.org/dc/dcmitype/StillImage" />
        <dc:title />
      </cc:Work>
    </rdf:RDF>
  </metadata>
  <g
     inkscape:label="Camada 1"
     inkscape:groupmode="layer"
     id="layer1">
    <g
       id="g15058"
       transform="matrix(-0.1567163,0,0,0.1567163,59.390017,-84.619876)"
       style="fill:#000000;stroke:#000000">
      <path
         inkscape:connector-curvature="0"
         id="path8228"
         d="M 377.14384,338.07635 A 191.42857,191.42857 0 0 0 185.71415,529.50408 191.42857,191.42857 0 0 0 377.14384,720.93377 191.42857,191.42857 0 0 0 568.57157,529.50408 191.42857,191.42857 0 0 0 377.14384,338.07635 Z m -0.85743,50 A 171.42857,142.85715 0 0 1 547.71415,530.93377 171.42857,142.85715 0 0 1 376.28641,673.79119 171.42857,142.85715 0 0 1 204.85673,530.93377 171.42857,142.85715 0 0 1 376.28641,388.07635 Z"
         style="fill:#000000;stroke:#000000" />
      <circle
         r="31.428572"
         cy="526.64752"
         cx="380.00012"
         id="path9685"
         style="fill:#000000;stroke:#000000" />
    </g>
  </g>
</svg>
