<?xml version="1.0" encoding="UTF-8" standalone="no"?>
<svg
   xmlns:dc="http://purl.org/dc/elements/1.1/"
   xmlns:cc="http://creativecommons.org/ns#"
   xmlns:rdf="http://www.w3.org/1999/02/22-rdf-syntax-ns#"
   xmlns:svg="http://www.w3.org/2000/svg"
   xmlns="http://www.w3.org/2000/svg"
   xmlns:sodipodi="http://sodipodi.sourceforge.net/DTD/sodipodi-0.dtd"
   xmlns:inkscape="http://www.inkscape.org/namespaces/inkscape"
   style="fill-opacity:1; color-rendering:auto; color-interpolation:auto; stroke:black; text-rendering:auto; stroke-linecap:square; stroke-miterlimit:10; stroke-opacity:1; shape-rendering:auto; fill:black; stroke-dasharray:none; font-weight:normal; stroke-width:1; font-family:'Dialog'; font-style:normal; stroke-linejoin:miter; font-size:12px; stroke-dashoffset:0; image-rendering:auto;"
   width="256"
   height="256"
   id="svg2"
   version="1.1"
   inkscape:version="0.91 r13725"
   sodipodi:docname="Uranus.svg">
  <metadata
     id="metadata2731">
    <rdf:RDF>
      <cc:Work
         rdf:about="">
        <dc:format>image/svg+xml</dc:format>
        <dc:type
           rdf:resource="http://purl.org/dc/dcmitype/StillImage" />
      </cc:Work>
    </rdf:RDF>
  </metadata>
  <sodipodi:namedview
     pagecolor="#ffffff"
     bordercolor="#666666"
     borderopacity="1"
     objecttolerance="10"
     gridtolerance="10"
     guidetolerance="10"
     inkscape:pageopacity="0"
     inkscape:pageshadow="2"
     inkscape:window-width="1124"
     inkscape:window-height="778"
     id="namedview2729"
     showgrid="false"
     inkscape:zoom="1.3037281"
     inkscape:cx="-25.976511"
     inkscape:cy="351.27089"
     inkscape:window-x="0"
     inkscape:window-y="0"
     inkscape:window-maximized="0"
     inkscape:current-layer="svg2" />
  <!-- Generated by Processing with the P8gGraphicsSVG library -->
  <defs
     id="genericDefs" />
  <path
     style="fill:#000000;stroke-width:0.15345882;stroke:#ffffff"
     d="m -4.04915,-61.08185 0,0.33 a 5.9191263,45.599173 0 0 1 0.2194,-0.0599 5.9191263,45.599173 0 0 1 5.324,25.7583 29.376403,29.376403 0 0 1 -27.254825,-25.57667 29.376403,29.376403 0 0 0 -0.270951,3.70519 A 29.376403,29.376403 0 0 0 1.86531,-27.6011 5.9191263,45.599173 0 0 1 2.0892,-15.2126 5.9191263,45.599173 0 0 1 1.78948,-1.03534 29.595631,5.9191263 0 0 1 -25.312487,-6.05602 l -0.439996,0 0,13.59219 0.214303,0 A 29.595631,5.9191263 0 0 1 -25.57715,7.31677 29.595631,5.9191263 0 0 1 1.67288,1.4188 5.9191263,45.599173 0 0 1 -2.77862,29.59647 29.376403,29.376403 0 0 0 -26.407686,58.40057 29.376403,29.376403 0 0 0 2.96889,87.77715 29.376403,29.376403 0 0 0 32.34517,58.40057 29.376403,29.376403 0 0 0 9.54304,29.80658 l 0,-0.11569 A 5.9191263,45.599173 0 0 1 4.92579,1.40711 29.595631,5.9191263 0 0 1 33.43886,6.73141 l 0,-12.78743 -0.27634,0 A 29.595631,5.9191263 0 0 1 4.8035,-1.01886 5.9191263,45.599173 0 0 1 4.50078,-15.34777 a 5.9191263,45.599173 0 0 1 0.2257,-12.27012 29.376403,29.376403 0 0 0 27.99455,-29.30704 29.376403,29.376403 0 0 0 -0.26346,-3.70519 29.376403,29.376403 0 0 1 -8.41567,17.12115 26.307227,21.92269 0 0 1 -6.80104,5.02698 29.376403,29.376403 0 0 1 -12.14872,3.43904 5.9191263,45.599173 0 0 1 4.4509,-25.36118 l 0,-0.67767 -13.59219,0 z M 2.83732,36.6972 A 26.307227,21.92269 0 0 1 29.14441,58.61993 26.307227,21.92269 0 0 1 2.83732,80.54266 26.307227,21.92269 0 0 1 -23.470083,58.61993 26.307227,21.92269 0 0 1 2.83732,36.6972 Z m 0.56977,16.44198 a 4.8229917,4.8229917 0 0 0 -4.82286,4.82286 4.8229917,4.8229917 0 0 0 4.82286,4.82316 4.8229917,4.8229917 0 0 0 4.82317,-4.82316 4.8229917,4.8229917 0 0 0 -4.82317,-4.82286 z"
     id="path8228"
     inkscape:connector-curvature="0" />
</svg>
