<?xml version="1.0" encoding="UTF-8" standalone="no"?>
<svg
   xmlns:dc="http://purl.org/dc/elements/1.1/"
   xmlns:cc="http://creativecommons.org/ns#"
   xmlns:rdf="http://www.w3.org/1999/02/22-rdf-syntax-ns#"
   xmlns:svg="http://www.w3.org/2000/svg"
   xmlns="http://www.w3.org/2000/svg"
   xmlns:sodipodi="http://sodipodi.sourceforge.net/DTD/sodipodi-0.dtd"
   xmlns:inkscape="http://www.inkscape.org/namespaces/inkscape"
   style="fill-opacity:1; color-rendering:auto; color-interpolation:auto; stroke:black; text-rendering:auto; stroke-linecap:square; stroke-miterlimit:10; stroke-opacity:1; shape-rendering:auto; fill:black; stroke-dasharray:none; font-weight:normal; stroke-width:1; font-family:'Dialog'; font-style:normal; stroke-linejoin:miter; font-size:12px; stroke-dashoffset:0; image-rendering:auto;"
   width="800"
   height="800"
   id="svg2"
   version="1.1"
   inkscape:version="0.91 r13725"
   sodipodi:docname="Venus.svg">
  <metadata
     id="metadata3465">
    <rdf:RDF>
      <cc:Work
         rdf:about="">
        <dc:format>image/svg+xml</dc:format>
        <dc:type
           rdf:resource="http://purl.org/dc/dcmitype/StillImage" />
        <dc:title />
      </cc:Work>
    </rdf:RDF>
  </metadata>
  <sodipodi:namedview
     pagecolor="#ffffff"
     bordercolor="#666666"
     borderopacity="1"
     objecttolerance="10"
     gridtolerance="10"
     guidetolerance="10"
     inkscape:pageopacity="0"
     inkscape:pageshadow="2"
     inkscape:window-width="1315"
     inkscape:window-height="692"
     id="namedview3463"
     showgrid="false"
     inkscape:zoom="1.18"
     inkscape:cx="37.932408"
     inkscape:cy="672.72086"
     inkscape:window-x="0"
     inkscape:window-y="0"
     inkscape:window-maximized="0"
     inkscape:current-layer="svg2" />
  <!-- Generated by Processing with the P8gGraphicsSVG library -->
  <defs
     id="genericDefs" />
  <path
     style="fill:#000000;stroke-width:0.07690959;stroke:#ffffff"
     d="M 0.14042026,-15.356073 A 14.722694,14.722694 0 0 0 -14.728,-0.78053932 14.722694,14.722694 0 0 0 -3.7352977,13.594387 l -5.02e-4,0.0505 a 2.9665131,14.832566 0.56962526 0 1 0.110149,-0.01841 2.9665131,14.832566 0.56962526 0 1 2.82141796,13.994742 14.832566,2.9665131 0.56962526 0 1 -13.70130326,-2.653935 l -0.220499,-0.0022 -0.06772,6.811724 0.107395,0.0011 a 14.832566,2.9665131 0.56962526 0 1 -0.01841,-0.110138 14.832566,2.9665131 0.56962526 0 1 13.89078726,-2.821562 2.9665131,14.832566 0.56962526 0 1 -2.81234196,14.35905 l 6.408414,0.06371 0.0014,-0.138493 A 2.9665131,14.832566 0.56962526 0 1 0.40035426,28.853917 14.832566,2.9665131 0.56962526 0 1 14.874008,31.668458 l 0.06371,-6.408423 -0.138493,-0.0014 A 14.832566,2.9665131 0.56962526 0 1 0.41855726,27.642235 2.9665131,14.832566 0.56962526 0 1 3.0748383,13.82574 l 7.52e-4,-0.0757 A 14.722694,14.722694 0 0 0 14.716003,-0.48773832 14.722694,14.722694 0 0 0 0.14046826,-15.356009 Z m -0.104127,3.844635 A 13.184502,10.987086 0.56962526 0 1 13.110851,-0.39379532 13.184502,10.987086 0.56962526 0 1 -0.18216774,10.461696 13.184502,10.987086 0.56962526 0 1 -13.256876,-0.65594732 13.184502,10.987086 0.56962526 0 1 0.03629326,-11.511438 Z m 0.203763,8.2427336 A 2.4171588,2.4171588 0 0 0 -2.2010937,-0.87576532 2.4171588,2.4171588 0 0 0 0.19199626,1.5652366 2.4171588,2.4171588 0 0 0 2.6330073,-0.82770332 2.4171588,2.4171588 0 0 0 0.24005626,-3.2687044 Z"
     id="path8228"
     inkscape:connector-curvature="0"
     inkscape:transform-center-y="14.38165" />
</svg>
